<svg width="390" height="83" viewBox="0 0 390 83" fill="none" xmlns="http://www.w3.org/2000/svg">
<path fill-rule="evenodd" clip-rule="evenodd" d="M0 12.7575H5.85C11.7 12.7575 23.725 12.7575 35.425 14.7087C47.125 16.6598 59.15 20.5622 70.85 20.5622C82.875 20.5622 94.575 16.6598 106.275 10.8063C118.3 4.95275 130 -2.85198 141.7 1.05038C153.725 4.95275 165.425 20.5622 177.125 22.5134C189.15 24.4646 200.85 12.7575 212.875 8.85511C224.575 4.95275 236.275 8.85511 248.3 12.7575C260 16.6598 271.7 20.5622 283.725 28.3669C295.425 36.1716 307.125 47.8787 319.15 45.9276C330.85 43.9764 342.875 28.3669 354.575 20.5622C366.275 12.7575 378.3 12.7575 384.15 12.7575H390V83H384.15C378.3 83 366.275 83 354.575 83C342.875 83 330.85 83 319.15 83C307.125 83 295.425 83 283.725 83C271.7 83 260 83 248.3 83C236.275 83 224.575 83 212.875 83C200.85 83 189.15 83 177.125 83C165.425 83 153.725 83 141.7 83C130 83 118.3 83 106.275 83C94.575 83 82.875 83 70.85 83C59.15 83 47.125 83 35.425 83C23.725 83 11.7 83 5.85 83H0V12.7575Z" fill="#F7FFE5"/>
</svg>
