<svg width="390" height="100" viewBox="0 0 390 100" fill="none" xmlns="http://www.w3.org/2000/svg">
<path fill-rule="evenodd" clip-rule="evenodd" d="M-1 16.655L6.24167 20.6238C13.4833 24.5926 28.2958 32.5303 42.7792 46.4211C57.5917 60.3119 72.075 80.156 86.8875 78.1716C101.371 76.1872 116.183 52.3743 130.667 42.4523C145.15 32.5303 159.963 36.4991 174.446 44.4367C189.258 52.3743 203.742 64.2807 218.554 60.3119C233.037 56.3431 247.85 36.4991 262.333 32.5303C276.817 28.5614 291.629 40.4679 306.112 36.4991C320.925 32.5303 335.408 12.6862 350.221 4.74859C364.704 -3.18903 379.517 0.779783 386.758 2.76419L394 4.74859V100H386.758C379.517 100 364.704 100 350.221 100C335.408 100 320.925 100 306.112 100C291.629 100 276.817 100 262.333 100C247.85 100 233.037 100 218.554 100C203.742 100 189.258 100 174.446 100C159.963 100 145.15 100 130.667 100C116.183 100 101.371 100 86.8875 100C72.075 100 57.5917 100 42.7792 100C28.2958 100 13.4833 100 6.24167 100H-1V16.655Z" fill="#C38154"/>
</svg>
