<svg width="390" height="94" viewBox="0 0 390 94" fill="none" xmlns="http://www.w3.org/2000/svg">
<path fill-rule="evenodd" clip-rule="evenodd" d="M390.002 84.6888L380.577 88.1768C371.477 91.6648 352.953 98.6408 334.427 84.6919C315.576 70.743 297.049 35.8691 278.524 34.1264C259.999 32.3837 241.476 63.7721 222.951 70.7481C204.427 77.7241 185.576 60.2877 167.05 49.8263C148.525 39.3648 129.999 35.8784 111.475 42.8544C92.9502 49.8304 74.4262 67.2688 55.5763 70.7574C37.0515 74.2459 18.526 63.7845 9.42567 58.5537L0.000359827 53.323L-0.0025415 1.01071L9.42248 1.01019C18.5225 1.00968 37.0475 1.00866 55.5725 1.00763C74.4225 1.00658 92.9475 1.00556 111.472 1.00453C129.997 1.0035 148.522 1.00247 167.047 1.00145C185.572 1.00042 204.422 0.999375 222.947 0.998347C241.472 0.99732 259.997 0.996292 278.522 0.995265C297.047 0.994238 315.572 0.99321 334.422 0.992165C352.947 0.991137 371.472 0.99011 380.572 0.989605L389.997 0.989082L390.002 84.6888Z" fill="#C38154"/>
</svg>
