<svg width="390" height="68" viewBox="0 0 390 68" fill="none" xmlns="http://www.w3.org/2000/svg">
<path fill-rule="evenodd" clip-rule="evenodd" d="M390 23.0437L380.575 17.4926C371.475 11.9414 352.95 0.83905 334.425 0.83905C315.575 0.83905 297.05 11.9414 278.525 11.9414C260 11.9414 241.475 0.83905 222.95 4.53983C204.425 8.24062 185.575 26.7445 167.05 34.1461C148.525 41.5477 130 37.8469 111.475 28.5949C92.95 19.343 74.425 4.53983 55.575 4.53983C37.05 4.53983 18.525 19.343 9.42502 26.7445L0 34.1461V67.4531H9.42502C18.525 67.4531 37.05 67.4531 55.575 67.4531C74.425 67.4531 92.95 67.4531 111.475 67.4531C130 67.4531 148.525 67.4531 167.05 67.4531C185.575 67.4531 204.425 67.4531 222.95 67.4531C241.475 67.4531 260 67.4531 278.525 67.4531C297.05 67.4531 315.575 67.4531 334.425 67.4531C352.95 67.4531 371.475 67.4531 380.575 67.4531H390V23.0437Z" fill="#F7FFE5"/>
</svg>
