<svg width="390" height="87" viewBox="0 0 390 87" fill="none" xmlns="http://www.w3.org/2000/svg">
<path fill-rule="evenodd" clip-rule="evenodd" d="M0 51.3607L16 41.3607C33 31.3607 65 12.3607 98 4.36068C130 -3.63932 163 0.36068 195 8.36068C228 16.3607 260 28.3607 293 35.3607C325 43.3607 358 47.3607 374 49.3607L390 51.3607V86.3607H374C358 86.3607 325 86.3607 293 86.3607C260 86.3607 228 86.3607 195 86.3607C163 86.3607 130 86.3607 98 86.3607C65 86.3607 33 86.3607 16 86.3607H0V51.3607Z" fill="#A0C49D"/>
</svg>
